<svg width="60" height="60" viewBox="0 0 60 60" fill="none" xmlns="http://www.w3.org/2000/svg">
<circle cx="30" cy="30" r="30" fill="#2497FF"/>
<g clip-path="url(#clip0_862_1979)">
<path d="M22.8672 22.1601C22.8672 22.2961 22.8942 22.4307 22.9466 22.5561C22.999 22.6815 23.0758 22.7953 23.1726 22.8908C23.2693 22.9863 23.3841 23.0617 23.5102 23.1125C23.6363 23.1633 23.7712 23.1885 23.9072 23.1868H35.5739C35.7142 23.1959 35.8549 23.1761 35.9872 23.1286C36.1196 23.0811 36.2408 23.007 36.3433 22.9107C36.4458 22.8144 36.5275 22.6982 36.5832 22.569C36.6389 22.4399 36.6675 22.3007 36.6672 22.1601C36.6672 21.8843 36.5576 21.6198 36.3626 21.4247C36.1675 21.2297 35.903 21.1201 35.6272 21.1201H23.9072C23.6314 21.1201 23.3668 21.2297 23.1718 21.4247C22.9768 21.6198 22.8672 21.8843 22.8672 22.1601Z" fill="white"/>
<path d="M35.5739 25H23.9072C23.6314 25 23.3668 25.1096 23.1718 25.3046C22.9768 25.4996 22.8672 25.7642 22.8672 26.04C22.8672 26.3158 22.9768 26.5804 23.1718 26.7754C23.3668 26.9704 23.6314 27.08 23.9072 27.08H35.5739C35.8497 27.08 36.1142 26.9704 36.3092 26.7754C36.5043 26.5804 36.6139 26.3158 36.6139 26.04C36.6139 25.7642 36.5043 25.4996 36.3092 25.3046C36.1142 25.1096 35.8497 25 35.5739 25Z" fill="white"/>
<path d="M45.4793 41.573L40.506 36.6663V16.3197C40.4923 16.0532 40.3767 15.8022 40.1831 15.6185C39.9896 15.4349 39.7328 15.3327 39.466 15.333H34.666V14.373C34.666 14.0972 34.5564 13.8327 34.3614 13.6376C34.1663 13.4426 33.9018 13.333 33.626 13.333H25.8527C25.5768 13.333 25.3123 13.4426 25.1173 13.6376C24.9222 13.8327 24.8127 14.0972 24.8127 14.373V15.333H20.0127C19.7368 15.333 19.4723 15.4426 19.2773 15.6376C19.0822 15.8327 18.9727 16.0972 18.9727 16.373V43.6797C18.9727 43.9555 19.0822 44.22 19.2773 44.4151C19.4723 44.6101 19.7368 44.7197 20.0127 44.7197H39.466C39.664 44.72 39.8581 44.6646 40.026 44.5597L41.266 45.7997C41.8274 46.3534 42.5842 46.6638 43.3727 46.6638C44.1612 46.6638 44.9179 46.3534 45.4793 45.7997C46.0271 45.2407 46.3335 44.489 46.3327 43.7063C46.3413 43.3116 46.2702 42.9192 46.1236 42.5526C45.9769 42.1861 45.7578 41.8529 45.4793 41.573ZM31.6927 17.2263H27.7993C27.5589 17.2263 27.3282 17.1308 27.1582 16.9608C26.9882 16.7908 26.8927 16.5601 26.8927 16.3197V15.413H32.666V16.3197C32.6644 16.444 32.6376 16.5667 32.5873 16.6804C32.537 16.794 32.4641 16.8963 32.3731 16.9811C32.2822 17.0658 32.175 17.1312 32.058 17.1734C31.9411 17.2155 31.8168 17.2336 31.6927 17.2263ZM33.3727 32.4797L32.146 33.693C31.5667 32.9858 31.1563 32.1559 30.946 31.2663C31.8364 31.4815 32.6662 31.8964 33.3727 32.4797ZM38.426 34.533L35.3327 31.413C33.8562 29.9386 31.8717 29.0847 29.786 29.0263C29.6493 29.0246 29.5137 29.0509 29.3875 29.1037C29.2614 29.1564 29.1474 29.2345 29.0527 29.333C28.9494 29.4298 28.8684 29.5479 28.8154 29.6792C28.7625 29.8104 28.7388 29.9516 28.746 30.093C28.799 32.18 29.6537 34.1663 31.1327 35.6397L38.146 42.6397H21.0527V17.3063H25.0527C25.2502 17.8833 25.6189 18.3863 26.1097 18.7484C26.6004 19.1105 27.1898 19.3144 27.7993 19.333H31.6927C32.2977 19.3276 32.8869 19.1386 33.3821 18.791C33.8773 18.4434 34.2553 17.9536 34.466 17.3863H38.466L38.426 34.533ZM34.8793 33.9197L38.6927 37.733L38.7727 37.813L44.0127 43.0397C44.1895 43.2165 44.2888 43.4563 44.2888 43.7063C44.2888 43.9564 44.1895 44.1962 44.0127 44.373C43.8358 44.5498 43.596 44.6491 43.346 44.6491C43.0959 44.6491 42.8561 44.5498 42.6793 44.373L33.5327 35.2397L34.8793 33.9197Z" fill="white"/>
<path d="M27.8005 36.8135H23.9072C23.7706 36.8135 23.6354 36.8404 23.5092 36.8926C23.383 36.9449 23.2684 37.0215 23.1718 37.1181C23.0752 37.2147 22.9986 37.3293 22.9464 37.4555C22.8941 37.5817 22.8672 37.7169 22.8672 37.8535C22.8672 37.9894 22.8942 38.124 22.9466 38.2495C22.999 38.3749 23.0758 38.4887 23.1726 38.5842C23.2693 38.6797 23.3841 38.755 23.5102 38.8059C23.6363 38.8567 23.7712 38.8819 23.9072 38.8801H27.8005C27.9365 38.8819 28.0714 38.8567 28.1975 38.8059C28.3236 38.755 28.4384 38.6797 28.5351 38.5842C28.6319 38.4887 28.7087 38.3749 28.7611 38.2495C28.8135 38.124 28.8405 37.9894 28.8405 37.8535C28.8405 37.7169 28.8136 37.5817 28.7614 37.4555C28.7091 37.3293 28.6325 37.2147 28.5359 37.1181C28.4393 37.0215 28.3247 36.9449 28.1985 36.8926C28.0723 36.8404 27.9371 36.8135 27.8005 36.8135Z" fill="white"/>
</g>
<defs>
<clipPath id="clip0_862_1979">
<rect width="40" height="40" fill="white" transform="translate(10 10)"/>
</clipPath>
</defs>
</svg>
