<svg width="60" height="60" viewBox="0 0 60 60" fill="none" xmlns="http://www.w3.org/2000/svg">
<circle cx="30" cy="30" r="30" fill="#2497FF"/>
<g clip-path="url(#clip0_862_2021)">
<path d="M45.4524 19.9469C45.3055 19.7384 45.1019 19.5764 44.8657 19.4802L30.4924 13.5602C30.1717 13.4305 29.8131 13.4305 29.4924 13.5602L15.1457 19.4535C14.9034 19.5527 14.6983 19.7252 14.559 19.9469C14.4204 20.1615 14.3464 20.4114 14.3457 20.6669V39.3335C14.3508 39.5925 14.4244 39.8455 14.559 40.0669C14.704 40.2802 14.9078 40.447 15.1457 40.5469L25.2257 44.6669L28.119 45.8535L29.639 46.4669C29.9136 46.5727 30.2178 46.5727 30.4924 46.4669L44.8524 40.5335C45.0951 40.4359 45.3038 40.2689 45.4524 40.0535C45.5775 39.8289 45.6461 39.5772 45.6524 39.3202V20.6669C45.6605 20.4121 45.5907 20.1609 45.4524 19.9469ZM29.999 16.1869L40.9857 20.6669L37.9057 22.0002L27.239 17.3869L29.999 16.1869ZM28.6657 43.2535L28.4657 43.1735L16.9724 38.4269V22.7069L17.1457 22.7869L28.6657 27.5335V43.2535ZM29.999 25.2402L19.0257 20.6669L23.8657 18.6669L34.5324 23.2935L29.999 25.2402ZM43.0257 38.4269H42.959L31.3324 43.2402V27.5202H31.4124L36.4657 25.4535V29.4535C36.4657 29.8071 36.6062 30.1463 36.8562 30.3963C37.1063 30.6464 37.4454 30.7869 37.799 30.7869C38.1527 30.7869 38.4918 30.6464 38.7418 30.3963C38.9919 30.1463 39.1324 29.8071 39.1324 29.4535V24.3335H39.2124L43.1057 22.7469L43.0257 38.4269Z" fill="white"/>
</g>
<defs>
<clipPath id="clip0_862_2021">
<rect width="40" height="40" fill="white" transform="translate(10 10)"/>
</clipPath>
</defs>
</svg>
