<svg width="20" height="20" viewBox="0 0 20 20" fill="none" xmlns="http://www.w3.org/2000/svg">
<path d="M9.99893 0C6.17198 0 3.05859 3.11385 3.05859 6.94089C3.05859 10.6248 9.35568 19.2316 9.62381 19.596L9.87404 19.9366C9.88841 19.9562 9.9072 19.9722 9.9289 19.9832C9.9506 19.9942 9.97459 20 9.99893 20C10.0234 20 10.0475 19.9943 10.0693 19.9833C10.0912 19.9723 10.1101 19.9563 10.1246 19.9366L10.3747 19.596C10.6429 19.2316 16.9399 10.6248 16.9399 6.94089C16.9399 3.11385 13.826 0 9.99893 0ZM9.99893 4.45468C11.3701 4.45468 12.4851 5.56974 12.4851 6.94089C12.4851 8.31134 11.3701 9.42711 9.99893 9.42711C8.62853 9.42711 7.51271 8.31134 7.51271 6.94089C7.51271 5.56974 8.62848 4.45468 9.99893 4.45468Z" fill="#222B38"/>
</svg>
