<svg width="120" height="60" viewBox="0 0 120 60" fill="none" xmlns="http://www.w3.org/2000/svg">
<g clip-path="url(#clip0_735_339)">
<path d="M2.28705 42.9766H0.0488281V52.0786H2.28705V42.9766Z" fill="white"/>
<path d="M9.07176 42.9766V52.0786H6.83442V48.4701H3.19531V46.3986H6.83442V42.9766H9.07176Z" fill="white"/>
<path d="M20.8379 45.6711C20.7222 45.3998 20.5814 45.1406 20.4174 44.8971C20.2562 44.6584 20.0715 44.4373 19.8663 44.2374C19.4389 43.8291 18.9363 43.5128 18.3881 43.3072C17.7878 43.0826 17.1531 42.9706 16.5143 42.9764H15.2014C14.5582 42.9695 13.919 43.0815 13.3143 43.3072C12.7657 43.5119 12.263 43.8283 11.8361 44.2374C11.4211 44.6429 11.0904 45.1306 10.8637 45.6711C10.3918 46.8633 10.3918 48.1979 10.8637 49.3901C11.0871 49.9325 11.4183 50.4208 11.8361 50.8238C12.264 51.2302 12.7666 51.5446 13.3143 51.7486C13.919 51.9742 14.5582 52.0863 15.2014 52.0794H16.5108C17.1496 52.0852 17.7842 51.9731 18.3845 51.7486C18.9319 51.5437 19.4343 51.2294 19.8628 50.8238C20.2795 50.4201 20.6103 49.9319 20.8343 49.3901C21.3062 48.1979 21.3062 46.8633 20.8343 45.6711H20.8379ZM18.8014 48.4809C18.6944 48.7602 18.5325 49.0137 18.3259 49.2257C18.1157 49.4338 17.8673 49.5969 17.5952 49.7054C17.3041 49.8221 16.9939 49.8804 16.6814 49.8772H15.0379C14.7206 49.8827 14.4053 49.8257 14.109 49.709C13.8371 49.601 13.589 49.4382 13.3792 49.2302C13.1713 49.0191 13.0095 48.7649 12.9045 48.4846C12.7896 48.1806 12.7323 47.8568 12.7357 47.5306C12.7327 47.2033 12.7931 46.8787 12.9134 46.5757C13.0229 46.2954 13.1865 46.0409 13.3943 45.8273C13.602 45.6137 13.8509 45.4471 14.125 45.3385C14.4161 45.2215 14.7262 45.1629 15.0388 45.1658H16.6823C16.9948 45.1629 17.305 45.2215 17.5961 45.3385C17.8696 45.447 18.1181 45.613 18.3257 45.8259C18.5332 46.0388 18.6953 46.2938 18.8014 46.5748C19.0243 47.1895 19.0243 47.8662 18.8014 48.4809Z" fill="white"/>
<path d="M35.2049 52.079H32.9871L31.5862 45.8051L29.8973 51.2649C29.7436 51.8131 29.4013 52.079 28.852 52.079H28.1142C27.5649 52.079 27.2253 51.8122 27.0671 51.263L25.3782 45.6991L23.9818 52.079H21.7773L23.5889 43.9519C23.6582 43.5864 23.7853 43.3315 23.9685 43.1917C24.1756 43.0405 24.4257 42.9643 24.6796 42.9751H25.6885C26.2378 42.9751 26.5845 43.2493 26.748 43.8048L28.4876 49.7014L30.2218 43.8048C30.3853 43.2483 30.7267 42.976 31.268 42.976H32.2849C32.5372 42.9665 32.7855 43.0426 32.9916 43.1926C33.1756 43.3342 33.308 43.591 33.3845 43.9556L35.2049 52.079Z" fill="white"/>
<path d="M44.7587 46.6143H39.6094V48.3998H44.7587V46.6143Z" fill="white"/>
<path d="M44.8691 49.8783V52.0786H36.3633V42.9766H44.8548V45.1623H38.6006V49.8783H44.8691Z" fill="white"/>
<path d="M58.6469 42.9766V45.1623H55.3171V52.0786H53.0798V45.1623H49.75V42.9766H58.6469Z" fill="white"/>
<path d="M69.589 45.6711C69.474 45.4002 69.3334 45.1416 69.1694 44.8989C69.0079 44.6594 68.8226 44.4377 68.6166 44.2374C68.1897 43.8282 67.6869 43.5118 67.1383 43.3071C66.5384 43.0823 65.904 42.9703 65.2654 42.9764H63.9561C63.3126 42.9697 62.6732 43.0817 62.0681 43.3071C61.5197 43.5123 61.017 43.8286 60.5899 44.2374C60.1755 44.6432 59.8451 45.1308 59.6183 45.6711C59.1454 46.8631 59.1454 48.1981 59.6183 49.3901C59.8423 49.9319 60.1731 50.4201 60.5899 50.8238C61.018 51.2299 61.5205 51.5443 62.0681 51.7486C62.6732 51.974 63.3126 52.086 63.9561 52.0793H65.2654C65.904 52.0854 66.5384 51.9734 67.1383 51.7486C67.6865 51.5455 68.1892 51.231 68.6166 50.8238C69.0339 50.4204 69.365 49.9321 69.589 49.3901C70.0609 48.1979 70.0609 46.8633 69.589 45.6711ZM67.5552 48.4809C67.4503 48.7613 67.2885 49.0155 67.0806 49.2265C66.8697 49.4363 66.6201 49.6004 66.3463 49.709C66.0555 49.8257 65.7456 49.884 65.4334 49.8808H63.789C63.4718 49.8854 63.1567 49.8271 62.861 49.709C62.5886 49.6021 62.3402 49.4392 62.1312 49.2302C61.9237 49.0188 61.7614 48.7651 61.6548 48.4855C61.5406 48.181 61.4839 47.8569 61.4877 47.5306C61.4853 47.2034 61.5457 46.8789 61.6654 46.5757C61.7761 46.2958 61.9399 46.0414 62.1472 45.8273C62.355 45.6138 62.6039 45.4473 62.8779 45.3385C63.169 45.2215 63.4791 45.1628 63.7917 45.1657H65.4361C65.7483 45.163 66.0582 45.2216 66.349 45.3385C66.6228 45.4466 66.8716 45.6125 67.0794 45.8254C67.2871 46.0383 67.4492 46.2936 67.5552 46.5748C67.7804 47.1891 67.7804 47.8666 67.5552 48.4809Z" fill="white"/>
<path d="M84.1529 42.9766V52.0786H81.9147V48.4701H78.2773V46.3986H81.9147V42.9766H84.1529Z" fill="white"/>
<path d="M77.3691 42.9766H75.1309V52.0786H77.3691V42.9766Z" fill="white"/>
<path d="M95.9162 45.6711C95.802 45.4 95.6617 45.1414 95.4976 44.8989C95.3358 44.6595 95.1505 44.4378 94.9447 44.2373C94.5179 43.8281 94.0151 43.5117 93.4665 43.3071C92.8662 43.0824 92.2315 42.9704 91.5927 42.9763H90.2842C89.6404 42.9698 89.0007 43.0818 88.3954 43.3071C87.8474 43.5125 87.345 43.8289 86.918 44.2373C86.5035 44.643 86.173 45.1307 85.9465 45.6711C85.4736 46.8631 85.4736 48.1981 85.9465 49.3901C86.1695 49.9325 86.5004 50.4208 86.918 50.8238C87.3459 51.2298 87.8481 51.5441 88.3954 51.7485C89.0007 51.9739 89.6404 52.0859 90.2842 52.0793H91.5927C92.2315 52.0853 92.8662 51.9733 93.4665 51.7485C94.0142 51.5446 94.5168 51.2302 94.9447 50.8238C95.3623 50.4208 95.6932 49.9325 95.9162 49.3901C96.3891 48.1981 96.3891 46.8631 95.9162 45.6711ZM93.8789 48.4809C93.7742 48.7614 93.6124 49.0156 93.4042 49.2265C93.1942 49.4349 92.9458 49.598 92.6736 49.7063C92.3825 49.8231 92.0723 49.8814 91.7598 49.8781H90.1171C89.7996 49.8823 89.4842 49.8236 89.1882 49.7054C88.9164 49.5973 88.6683 49.4345 88.4585 49.2265C88.2503 49.0154 88.0882 48.7613 87.9829 48.4809C87.8686 48.1768 87.8119 47.853 87.8158 47.5269C87.813 47.1997 87.8734 46.8751 87.9936 46.572C88.1037 46.2919 88.2676 46.0374 88.4754 45.8237C88.6831 45.6101 88.9319 45.4435 89.206 45.3348C89.4971 45.2178 89.8073 45.1592 90.1198 45.1621H91.7625C92.075 45.1592 92.3852 45.2178 92.6762 45.3348C92.9503 45.4435 93.1991 45.6099 93.4067 45.8235C93.6143 46.0371 93.7761 46.293 93.8816 46.5748C94.1056 47.1893 94.1056 47.8664 93.8816 48.4809H93.8789Z" fill="white"/>
<path d="M110.283 52.0798H108.067L106.665 45.8059L104.977 51.2629C104.822 51.8112 104.479 52.0771 103.93 52.0771H103.199C102.649 52.0771 102.31 51.8102 102.152 51.2611L100.463 45.6971L99.061 52.0771H96.8574L98.6654 43.9527C98.7356 43.5872 98.8636 43.3323 99.0459 43.1925C99.2512 43.0424 99.499 42.9663 99.7507 42.9759H100.768C101.319 42.9759 101.665 43.25 101.829 43.8056L103.569 49.7022L105.294 43.8047C105.458 43.2482 105.8 42.9759 106.34 42.9759H107.357C107.609 42.9666 107.857 43.0427 108.063 43.1925C108.246 43.3341 108.379 43.5909 108.457 43.9555L110.283 52.0798Z" fill="white"/>
<path d="M119.84 46.6143H114.691V48.3998H119.84V46.6143Z" fill="white"/>
<path d="M119.95 49.8783V52.0786H111.445V42.9766H119.937V45.1623H113.682V49.8783H119.95Z" fill="white"/>
<path d="M0 55.8315V56.7691H1.64V59.9974H2.66667V56.7718H4.30578V55.8315H0Z" fill="#2497FF"/>
<path d="M8.68676 58.7812L8.79698 58.7309C9.0514 58.6161 9.2692 58.4299 9.42543 58.1936C9.58208 57.95 9.663 57.6632 9.65743 57.3712C9.65983 57.1564 9.61803 56.9434 9.53476 56.7462C9.45576 56.5605 9.33766 56.3951 9.18898 56.2619C9.03408 56.1233 8.85446 56.0168 8.66009 55.9485C8.44201 55.8706 8.21273 55.8311 7.98187 55.8315H4.99609V59.9974H6.01387V56.7718H7.98187C8.15263 56.7654 8.3191 56.8276 8.44587 56.9454C8.56495 57.0713 8.63157 57.24 8.63157 57.4156C8.63157 57.5912 8.56495 57.7598 8.44587 57.8857C8.31973 58.0047 8.15298 58.0678 7.98187 58.0611H6.53209V58.8972H7.54187L8.43076 60.0002H9.75965L8.68676 58.7812Z" fill="#2497FF"/>
<path d="M13.7306 56.11C13.6871 56.0242 13.6208 55.953 13.5395 55.9044C13.4581 55.8559 13.365 55.8321 13.271 55.8358H12.9973C12.9032 55.8326 12.8102 55.8566 12.7288 55.9051C12.6474 55.9535 12.5809 56.0245 12.5368 56.11L10.3359 59.9999H11.4568L13.1413 56.9113L14.0506 58.5826H12.8764L12.4675 59.331H14.4613L14.831 59.9999H15.9324L13.7306 56.11Z" fill="#2497FF"/>
<path d="M20.2965 55.8319V58.5001L18.0396 56.1243C17.9957 56.0769 17.9491 56.0324 17.9 55.9909C17.8579 55.9552 17.812 55.9246 17.7631 55.8995C17.7112 55.875 17.6566 55.8572 17.6005 55.8465C17.5259 55.8334 17.4503 55.8273 17.3747 55.8282H17.0867C16.7676 55.8282 16.6191 55.957 16.6191 56.233V59.9941H17.6103V57.0819L20.0591 59.6587C20.144 59.7609 20.2421 59.8507 20.3507 59.9255C20.4519 59.9819 20.5665 60.0078 20.6814 60.0005H20.9231C21.1711 60.0005 21.2787 59.8908 21.2787 59.6423V55.8319H20.2965Z" fill="#2497FF"/>
<path d="M26.6454 58.264C26.5805 58.1165 26.4863 57.9845 26.3689 57.8766C26.2436 57.7661 26.0996 57.6803 25.9441 57.6235C25.7681 57.5616 25.5833 57.5307 25.3974 57.5321H23.4356C23.3858 57.534 23.3362 57.5256 23.2896 57.5074C23.243 57.4892 23.2005 57.4615 23.1645 57.4261C23.1294 57.3895 23.1019 57.3459 23.0837 57.2979C23.0655 57.25 23.057 57.1988 23.0587 57.1474C23.0563 57.0956 23.0647 57.0439 23.0832 56.9957C23.1018 56.9475 23.1301 56.9039 23.1663 56.8678C23.2403 56.8025 23.3354 56.768 23.4329 56.7709H26.6792V55.8316H23.3796C23.1943 55.8309 23.0102 55.8618 22.8347 55.9229C22.6798 55.9767 22.5367 56.0612 22.4134 56.1715C22.2956 56.2786 22.2018 56.4108 22.1387 56.5589C22.071 56.7172 22.0371 56.8886 22.0392 57.0615C22.0369 57.2325 22.0702 57.4019 22.1369 57.5586C22.2009 57.7038 22.2942 57.8334 22.4107 57.9387C22.5359 58.0487 22.68 58.1336 22.8356 58.1891C23.0105 58.2516 23.1945 58.2825 23.3796 58.2805H25.3414C25.4422 58.2776 25.5401 58.3153 25.6143 58.3855C25.6511 58.4228 25.68 58.4676 25.699 58.517C25.718 58.5664 25.7267 58.6194 25.7245 58.6725C25.7271 58.7251 25.7185 58.7776 25.6995 58.8265C25.6805 58.8754 25.6514 58.9195 25.6143 58.9557C25.5391 59.0238 25.4415 59.0597 25.3414 59.0562H22.0952V59.9993H25.3974C25.5834 60.0012 25.7683 59.9703 25.9441 59.9079C26.1007 59.854 26.2453 59.7683 26.3689 59.6557C26.4866 59.5462 26.5808 59.4127 26.6454 59.2637C26.7109 59.1047 26.7446 58.9338 26.7446 58.7611C26.7446 58.5884 26.7109 58.4175 26.6454 58.2585V58.264Z" fill="#2497FF"/>
<path d="M31.9505 56.7506C31.8709 56.5654 31.7532 56.4002 31.6056 56.2663C31.4486 56.1274 31.2677 56.0198 31.0723 55.9492C30.8513 55.8706 30.6189 55.8316 30.3851 55.8341H27.5078V60H28.5256V56.7716H30.4056C30.5757 56.7668 30.7409 56.8304 30.866 56.9489C30.9286 57.0095 30.9779 57.0832 31.0106 57.165C31.0432 57.2468 31.0585 57.3348 31.0554 57.4231C31.0579 57.5103 31.0423 57.5971 31.0096 57.6776C30.977 57.7581 30.928 57.8305 30.866 57.8901C30.7404 58.0076 30.5754 58.0708 30.4056 58.0664H29.0447V58.9236H30.3843C30.618 58.9261 30.8506 58.8884 31.0723 58.8121C31.2681 58.7429 31.4492 58.6355 31.6056 58.4959C31.7524 58.3594 31.8699 58.1929 31.9505 58.007C32.0344 57.8104 32.0765 57.5976 32.074 57.3829C32.0768 57.1655 32.0347 56.95 31.9505 56.7506Z" fill="#2497FF"/>
<path d="M37.7068 57.0689C37.5955 56.8199 37.4362 56.5967 37.2384 56.4129C37.0287 56.2245 36.7854 56.0798 36.5219 55.987C36.2294 55.8822 35.9215 55.8297 35.6117 55.8317H34.9664C34.6547 55.8283 34.3447 55.8799 34.0499 55.9843C33.7861 56.0762 33.5426 56.221 33.3335 56.4101C33.0281 56.7048 32.819 57.0895 32.7348 57.5113C32.6506 57.9331 32.6955 58.3713 32.8633 58.7658C32.9726 59.0166 33.1326 59.2405 33.3326 59.4228C33.542 59.6114 33.7854 59.7558 34.049 59.8477C34.3437 59.9526 34.6537 60.0042 34.9655 60.0003H35.6108C35.9205 60.0052 36.2288 59.9551 36.5219 59.8523C36.7852 59.7595 37.0285 59.6152 37.2384 59.4274C37.4383 59.2465 37.5978 59.0233 37.7059 58.7731C37.8182 58.5047 37.8762 58.2155 37.8762 57.9233C37.8762 57.6311 37.8182 57.342 37.7059 57.0735L37.7068 57.0689ZM36.7717 58.3802C36.7175 58.5187 36.6347 58.6434 36.529 58.7457C36.4207 58.8467 36.2946 58.9255 36.1575 58.9778C36.0091 59.0332 35.8523 59.061 35.6944 59.0601H34.8837C34.7235 59.0616 34.5642 59.0337 34.4135 58.9778C34.2766 58.9256 34.1507 58.8468 34.0428 58.7457C33.9367 58.6433 33.8534 58.5187 33.7984 58.3802C33.7393 58.2333 33.7091 58.0759 33.7095 57.9169C33.7072 57.7575 33.7375 57.5994 33.7984 57.4527C33.8548 57.3146 33.9386 57.1901 34.0446 57.0872C34.1522 56.9832 34.2792 56.9027 34.4179 56.8506C34.5655 56.7943 34.7219 56.7664 34.8793 56.7683H35.6899C35.8479 56.7666 36.0048 56.7945 36.153 56.8506C36.2911 56.903 36.4175 56.9835 36.5246 57.0872C36.6302 57.1896 36.713 57.3143 36.7673 57.4527C36.8273 57.5987 36.8576 57.7557 36.8562 57.9142C36.8591 58.0738 36.8304 58.2324 36.7717 58.3802Z" fill="#2497FF"/>
<path d="M42.3569 58.7819L42.4671 58.7308C42.7213 58.6157 42.9391 58.4295 43.0955 58.1935C43.2522 57.9499 43.3331 57.6631 43.3275 57.3711C43.3295 57.1556 43.2864 56.9421 43.2013 56.7451C43.1226 56.5595 43.0048 56.3941 42.8564 56.2609C42.7002 56.1217 42.519 56.0152 42.3231 55.9474C42.1054 55.8711 41.8767 55.8331 41.6466 55.835H38.668V60.0009H39.6857V56.7716H41.6546C41.8254 56.7654 41.9918 56.8276 42.1186 56.9453C42.2377 57.0711 42.3043 57.2398 42.3043 57.4154C42.3043 57.591 42.2377 57.7596 42.1186 57.8855C41.9921 58.004 41.8256 58.0669 41.6546 58.061H40.2057V58.8971H41.2146L42.1035 60H43.4297L42.3569 58.7819Z" fill="#2497FF"/>
<path d="M43.7695 55.8315V56.7691H45.4095V59.9974H46.4353V56.7718H48.0744V55.8315H43.7695Z" fill="#2497FF"/>
<path d="M50.4297 57.4268V58.2985H52.435V57.4304L50.4297 57.4268Z" fill="#2497FF"/>
<path d="M59.112 57.0684C59.0006 56.8192 58.8409 56.5959 58.6427 56.4123C58.4332 56.2241 58.1902 56.0795 57.9272 55.9865C57.6335 55.8812 57.3244 55.8287 57.0134 55.8311H54.5352V59.997H57.0134C57.323 60.0029 57.6312 59.9538 57.9245 59.8517C58.1871 59.7591 58.4301 59.6154 58.64 59.4287C58.8395 59.2462 58.9994 59.0227 59.1094 58.7726C59.2214 58.504 59.2791 58.2149 59.2791 57.9228C59.2791 57.6306 59.2214 57.3415 59.1094 57.073L59.112 57.0684ZM58.1707 58.3796C58.1162 58.5182 58.0331 58.6429 57.9272 58.7452C57.8195 58.8457 57.6943 58.9244 57.5583 58.9772C57.4108 59.0329 57.2549 59.0607 57.0978 59.0595H55.5565V56.7751H57.0916C57.2487 56.7734 57.4047 56.8013 57.552 56.8573C57.6894 56.9095 57.8149 56.9901 57.9209 57.094C58.0265 57.1966 58.1096 57.3212 58.1645 57.4595C58.2235 57.6058 58.2537 57.7626 58.2534 57.9209C58.254 58.0781 58.225 58.2338 58.168 58.3796H58.1707Z" fill="#2497FF"/>
<path d="M61.0961 59.057V56.7726H64.177V55.8314H60.0703V59.9973H64.1841V59.057H61.0961ZM62.2516 53.7764L61.6294 55.1808H62.4196L63.1103 53.7764H62.2516ZM61.6659 57.5329V58.2813H64.1263V57.5329H61.6659Z" fill="#2497FF"/>
<path d="M70.4243 56.2598C70.4052 56.1311 70.3422 56.0135 70.2465 55.9281C70.1497 55.8633 70.0356 55.8313 69.9203 55.8368H69.4225C69.3141 55.8269 69.2059 55.8578 69.118 55.9236C69.0301 55.9895 68.9683 56.0859 68.9443 56.195L68.0554 59.0651L67.1594 56.1968C67.1338 56.087 67.0705 55.9903 66.9812 55.9245C66.8919 55.8587 66.7825 55.8282 66.6731 55.8386H66.1727C66.0573 55.8333 65.9433 55.8652 65.8465 55.93C65.7514 56.0138 65.6902 56.1311 65.6749 56.2589L64.7949 60.0054H65.802L66.5131 56.9241L67.3851 59.6518C67.458 59.893 67.61 60.0054 67.8643 60.0054H68.2287C68.4829 60.0054 68.6349 59.893 68.7069 59.6536L69.5798 56.9753L70.2909 60.0054H71.3043L70.4243 56.2598Z" fill="#2497FF"/>
<path d="M72.9926 59.057V56.7726H76.0735V55.8314H71.9668V59.9973H76.0806V59.057H72.9926ZM74.1481 53.7764L73.5215 55.1808H74.3126L75.0068 53.7764H74.1481ZM73.5615 57.5329V58.2813H76.0255V57.5329H73.5615Z" fill="#2497FF"/>
<path d="M80.6342 55.8314V58.4996L78.3791 56.1238C78.3345 56.0765 78.2873 56.032 78.2377 55.9904C78.1956 55.9548 78.1497 55.9241 78.1009 55.899C78.0486 55.8746 77.9937 55.8568 77.9373 55.846C77.8633 55.8329 77.7884 55.8268 77.7133 55.8277H77.4226C77.1026 55.8277 76.9551 55.9566 76.9551 56.2325V59.9936H77.9471V57.0814L80.3977 59.6583C80.4824 59.7604 80.5801 59.8502 80.6884 59.9251C80.79 59.9812 80.9048 60.0071 81.02 60H81.26C81.508 60 81.6155 59.8904 81.6155 59.6418V55.8314H80.6342Z" fill="#2497FF"/>
<path d="M85.6994 56.11C85.6558 56.0243 85.5896 55.953 85.5082 55.9045C85.4269 55.856 85.3338 55.8322 85.2398 55.8359H84.966C84.8719 55.8319 84.7786 55.8556 84.697 55.9041C84.6155 55.9527 84.5491 56.0241 84.5056 56.11L82.3047 59.9999H83.4256L85.1145 56.9114L86.0238 58.5827H84.8442L84.4354 59.3311H86.43L86.7998 59.9999H87.9002L85.6994 56.11Z" fill="#2497FF"/>
<path d="M89.3172 57.0909C89.4246 56.9865 89.5516 56.9059 89.6906 56.8542C89.8384 56.7979 89.9951 56.77 90.1528 56.772H92.5332V55.8317H90.2337C89.9214 55.8283 89.6108 55.8799 89.3154 55.9843C89.052 56.0765 88.8088 56.2212 88.5999 56.4101C88.4011 56.5932 88.2413 56.8166 88.1306 57.0662C88.0174 57.3344 87.959 57.6237 87.959 57.916C87.959 58.2084 88.0174 58.4976 88.1306 58.7658C88.2397 59.0159 88.3998 59.2389 88.5999 59.4201C88.8092 59.6083 89.0523 59.7526 89.3154 59.845C89.6107 59.9498 89.9213 60.0014 90.2337 59.9976H92.5332V57.5304H90.1243V58.2788H91.5714V59.0546H90.1492C89.9913 59.0556 89.8345 59.0277 89.6861 58.9723C89.5486 58.9204 89.4221 58.8416 89.3137 58.7402C89.2079 58.637 89.1237 58.5126 89.0666 58.3747C88.948 58.0769 88.948 57.7432 89.0666 57.4454C89.125 57.3105 89.2104 57.1897 89.3172 57.0909Z" fill="#2497FF"/>
<path d="M94.4906 59.0572V56.7727H97.5715V55.8315H93.4648V59.9974H97.5768V59.0572H94.4906ZM95.0631 57.533V58.2814H97.5226V57.533H95.0631Z" fill="#2497FF"/>
<path d="M103.817 56.2591C103.798 56.1307 103.735 56.0134 103.639 55.9283C103.543 55.8635 103.429 55.8315 103.313 55.8369H102.813C102.704 55.8268 102.596 55.8576 102.508 55.9235C102.42 55.9894 102.358 56.0859 102.334 56.1951L101.445 59.0653L100.556 56.1951C100.53 56.0854 100.467 55.9887 100.378 55.9229C100.289 55.8571 100.18 55.8266 100.071 55.8369H99.5701C99.4542 55.8316 99.3395 55.8635 99.2421 55.9283C99.147 56.012 99.086 56.1294 99.0714 56.2573L98.1914 60.0037H99.2003L99.9114 56.9225L100.783 59.6501C100.855 59.8913 101.007 60.0037 101.263 60.0037H101.627C101.881 60.0037 102.033 59.8913 102.105 59.6519L102.979 56.9737L103.69 60.0037H104.703L103.817 56.2591Z" fill="#2497FF"/>
<path d="M106.387 59.0572V56.7727H109.468V55.8315H105.361V59.9974H109.475V59.0572H106.387ZM106.96 57.533V58.2814H109.422V57.533H106.96Z" fill="#2497FF"/>
<path d="M114.03 55.8319V58.5001L111.773 56.1243C111.729 56.0772 111.682 56.0326 111.632 55.9909C111.591 55.9549 111.545 55.9243 111.496 55.8995C111.444 55.8747 111.389 55.8568 111.332 55.8465C111.258 55.8334 111.183 55.8273 111.108 55.8282H110.82C110.5 55.8282 110.352 55.9571 110.352 56.233V59.9941H111.344V57.0819L113.792 59.6587C113.877 59.7609 113.975 59.8507 114.083 59.9256C114.185 59.9817 114.3 60.0076 114.415 60.0005H114.655C114.903 60.0005 115.01 59.8908 115.01 59.6423V55.8319H114.03Z" fill="#2497FF"/>
<path d="M115.695 55.8315V56.7691H117.334V59.9974H118.358V56.7718H120V55.8315H115.695Z" fill="#2497FF"/>
<path d="M69.0382 3.16804L67.1288 0H17.4648L25.1093 7.85843H61.4551C60.9597 9.01587 60.464 10.1764 59.968 11.3399H28.4924L36.1368 19.1983H59.5342C60.074 20.3558 60.6142 21.5166 61.1546 22.6807H39.52L47.1644 30.5391H67.1288L68.6311 28.0445L76.3226 15.26L69.0382 3.16804Z" fill="#2497FF"/>
<path d="M70.9473 30.527H84.3188L92.5259 16.8999H79.1553L70.9473 30.527Z" fill="white"/>
<path d="M92.5259 13.6271L84.3188 0H70.9473L79.1553 13.6271H92.5259Z" fill="white"/>
</g>
<defs>
<clipPath id="clip0_735_339">
<rect width="120" height="60" fill="white"/>
</clipPath>
</defs>
</svg>
