<svg width="60" height="60" viewBox="0 0 60 60" fill="none" xmlns="http://www.w3.org/2000/svg">
<circle cx="30" cy="30" r="30" fill="#2497FF"/>
<g clip-path="url(#clip0_862_2029)">
<path d="M45.6269 16.2529H14.3735C13.7958 16.2529 13.2238 16.3673 12.6906 16.5896C12.1574 16.8119 11.6735 17.1376 11.2669 17.548C10.8602 17.9583 10.5389 18.4452 10.3215 18.9804C10.1041 19.5156 9.9949 20.0886 10.0002 20.6663V39.3329C10.0002 40.4928 10.4609 41.6052 11.2811 42.4253C12.1013 43.2455 13.2136 43.7063 14.3735 43.7063H45.6269C46.7867 43.7063 47.8991 43.2455 48.7193 42.4253C49.5394 41.6052 50.0002 40.4928 50.0002 39.3329V20.6663C50.0055 20.0886 49.8962 19.5156 49.6788 18.9804C49.4614 18.4452 49.1401 17.9583 48.7335 17.548C48.3269 17.1376 47.843 16.8119 47.3097 16.5896C46.7765 16.3673 46.2045 16.2529 45.6269 16.2529ZM14.3735 18.7463H45.6269C45.876 18.748 46.1224 18.7992 46.3515 18.897C46.5807 18.9947 46.7882 19.1371 46.9619 19.3157C47.1356 19.4944 47.272 19.7058 47.3633 19.9376C47.4546 20.1695 47.4988 20.4172 47.4935 20.6663V23.1196H12.5068V20.6663C12.5015 20.4172 12.5458 20.1695 12.6371 19.9376C12.7283 19.7058 12.8648 19.4944 13.0385 19.3157C13.2122 19.1371 13.4196 18.9947 13.6488 18.897C13.878 18.7992 14.1244 18.748 14.3735 18.7463ZM45.6269 41.2529H14.3735C14.1244 41.2512 13.878 41.2 13.6488 41.1022C13.4196 41.0045 13.2122 40.8621 13.0385 40.6835C12.8648 40.5048 12.7283 40.2934 12.6371 40.0616C12.5458 39.8297 12.5015 39.582 12.5068 39.3329V25.6263H47.4935V39.3329C47.4988 39.582 47.4546 39.8297 47.3633 40.0616C47.272 40.2934 47.1356 40.5048 46.9619 40.6835C46.7882 40.8621 46.5807 41.0045 46.3515 41.1022C46.1224 41.2 45.876 41.2512 45.6269 41.2529Z" fill="white"/>
<path d="M18.7472 37.4937H17.4939C17.165 37.4937 16.8496 37.3631 16.6171 37.1305C16.3845 36.898 16.2539 36.5826 16.2539 36.2537V35.0004C16.2539 34.6703 16.3841 34.3535 16.6163 34.1188C16.8484 33.8842 17.1638 33.7506 17.4939 33.7471H18.7472C19.0796 33.7471 19.3984 33.8791 19.6335 34.1142C19.8685 34.3492 20.0006 34.668 20.0006 35.0004V36.2537C20.0006 36.4177 19.9681 36.58 19.9049 36.7314C19.8418 36.8827 19.7492 37.02 19.6327 37.1353C19.5161 37.2506 19.3778 37.3417 19.2259 37.4032C19.0739 37.4647 18.9112 37.4955 18.7472 37.4937Z" fill="white"/>
</g>
<defs>
<clipPath id="clip0_862_2029">
<rect width="40" height="40" fill="white" transform="translate(10 10)"/>
</clipPath>
</defs>
</svg>
