<svg width="60" height="60" viewBox="0 0 60 60" fill="none" xmlns="http://www.w3.org/2000/svg">
<circle cx="30" cy="30" r="30" fill="#2497FF"/>
<g clip-path="url(#clip0_862_2005)">
<path d="M49.9205 19.707C49.8755 19.5663 49.7979 19.4384 49.6938 19.3336C49.5972 19.2388 49.4843 19.162 49.3605 19.107C49.2343 19.0523 49.098 19.0251 48.9605 19.027C45.4426 18.9124 41.9376 19.5064 38.6538 20.7736C38.5213 20.837 38.4039 20.9282 38.3095 21.0409C38.2152 21.1536 38.1462 21.2853 38.1072 21.427C38.0933 21.5287 38.0933 21.6319 38.1072 21.7336C36.9072 21.3336 35.3338 20.667 33.7205 19.987C32.6048 19.3329 31.3115 19.0467 30.024 19.1687C28.7365 19.2908 27.5201 19.815 26.5472 20.667H20.2538C20.2538 20.4803 20.2538 20.307 20.2538 20.147C20.2753 20 20.2624 19.8501 20.2162 19.7089C20.1699 19.5678 20.0915 19.4393 19.9872 19.3336C18.5738 18.0003 13.2938 17.547 11.0938 17.427C10.9526 17.4178 10.811 17.4379 10.6779 17.4861C10.5448 17.5343 10.4231 17.6095 10.3205 17.707C10.2286 17.7943 10.148 17.8929 10.0805 18.0003C10.0231 18.1443 9.99588 18.2986 10.0005 18.4536V33.2936C10.0005 33.5694 10.1101 33.834 10.3051 34.029C10.5002 34.2241 10.7647 34.3336 11.0405 34.3336H15.9872C16.2061 34.331 16.4187 34.2603 16.5955 34.1312C16.7723 34.0022 16.9046 33.8213 16.9738 33.6136L17.0538 33.347L17.4138 33.7336C18.1605 34.507 18.9205 35.307 19.4405 35.747C22.5205 38.3203 26.2138 41.0803 26.9605 41.587C27.877 42.1614 28.9213 42.5004 30.0005 42.5736C30.6814 42.5939 31.3504 42.3927 31.9072 42.0003C32.5283 42.2199 33.206 42.2199 33.8272 42.0003C34.5677 41.6974 35.1835 41.1521 35.5738 40.4536C36.2776 40.5504 36.9942 40.4294 37.6272 40.107C38.2426 39.8019 38.743 39.3062 39.0538 38.6936C39.7427 38.6915 40.4086 38.4459 40.9338 38.0003C41.3011 37.6917 41.5843 37.295 41.7568 36.8473C41.9293 36.3997 41.9857 35.9156 41.9205 35.4403L42.8805 34.8003C42.8805 34.9736 42.9872 35.1336 43.0138 35.267C43.0804 35.4826 43.2105 35.6732 43.3872 35.8136C43.5686 35.9486 43.7878 36.0232 44.0138 36.027H48.9605C49.2363 36.027 49.5009 35.9174 49.6959 35.7223C49.8909 35.5273 50.0005 35.2628 50.0005 34.987V20.107C49.9998 19.9697 49.9727 19.8339 49.9205 19.707ZM44.7872 33.907C43.9605 31.2403 41.8272 25.1203 40.5472 22.3203C42.9427 21.5886 45.4294 21.1981 47.9338 21.1603V33.907H44.7872ZM33.3205 31.4403C33.1857 31.4351 33.0512 31.4572 32.9252 31.5053C32.7992 31.5534 32.6842 31.6266 32.5872 31.7203C32.4875 31.8149 32.4078 31.9285 32.3528 32.0545C32.2978 32.1805 32.2687 32.3162 32.2672 32.4536C32.2619 32.5916 32.2852 32.7292 32.3357 32.8577C32.3862 32.9862 32.4627 33.1028 32.5605 33.2003C33.5738 34.2536 36.0005 36.7603 37.1605 37.8403C36.9991 38.077 36.7623 38.252 36.4887 38.3368C36.215 38.4215 35.9207 38.411 35.6538 38.307C34.6672 37.5203 32.2005 34.8936 31.6538 34.307C31.5148 34.1574 31.3347 34.0522 31.1362 34.0043C30.9377 33.9564 30.7295 33.9681 30.5375 34.0377C30.3456 34.1074 30.1784 34.232 30.0568 34.3961C29.9352 34.5602 29.8646 34.7564 29.8538 34.9603C29.8498 35.1001 29.8737 35.2393 29.9241 35.3698C29.9744 35.5003 30.0503 35.6194 30.1472 35.7203C30.5472 36.147 32.5738 38.3203 33.8405 39.4803C33.6926 39.766 33.4463 39.9886 33.1472 40.107C33.0323 40.1681 32.9013 40.1919 32.7723 40.1752C32.6433 40.1585 32.5226 40.102 32.4272 40.0136C31.3072 39.0803 29.0538 36.6936 28.4272 36.0136C28.3368 35.9113 28.2261 35.8288 28.1022 35.7714C27.9782 35.714 27.8437 35.683 27.7072 35.6803C27.4321 35.6776 27.166 35.7774 26.9605 35.9603C26.7667 36.1552 26.6579 36.4188 26.6579 36.6936C26.6579 36.9684 26.7667 37.2321 26.9605 37.427C27.2672 37.7603 28.7872 39.387 30.0805 40.627C29.4437 40.5285 28.8322 40.3066 28.2805 39.9736C27.6938 39.587 24.0672 36.8803 20.9605 34.267C20.5205 33.907 19.7738 33.1203 19.1072 32.4136C18.6805 31.987 18.2538 31.5336 17.9338 31.227C18.4538 28.787 19.3338 25.5203 19.9205 22.787H24.3205C23.3338 23.9203 22.0005 26.0003 22.3472 27.6936C22.4369 28.0815 22.6289 28.4382 22.9032 28.7266C23.1776 29.0151 23.5243 29.2247 23.9072 29.3336C24.8112 29.653 25.7958 29.6626 26.7058 29.3608C27.6159 29.0591 28.3997 28.4632 28.9338 27.667C29.3509 27.5988 29.7554 27.4684 30.1338 27.2803L30.5872 27.0803C31.5338 27.9603 32.8138 29.0003 34.0538 30.0003C36.4538 31.947 39.1872 34.147 39.7872 35.4003C39.8799 35.5608 39.9108 35.7498 39.874 35.9315C39.8371 36.1132 39.7351 36.2752 39.5872 36.387C39.4953 36.4806 39.3804 36.5484 39.254 36.5835C39.1276 36.6186 38.9942 36.6198 38.8672 36.587C38.2938 36.1203 35.9605 33.7603 34.0538 31.7603C33.9592 31.6606 33.8456 31.5809 33.7196 31.5259C33.5937 31.4709 33.4579 31.4418 33.3205 31.4403ZM30.8272 24.8403C30.7079 24.8213 30.5864 24.8213 30.4672 24.8403C29.9472 25.027 29.6138 25.1736 29.3472 25.2936C29.0322 25.4694 28.6808 25.5698 28.3205 25.587C28.1655 25.5966 28.0148 25.6423 27.8805 25.7203C27.7489 25.7986 27.6389 25.9086 27.5605 26.0403C26.4805 27.6536 25.4138 27.547 24.6138 27.2803C24.4538 27.2803 24.4405 27.1736 24.4272 27.1203C24.592 25.8301 25.2227 24.6447 26.2005 23.787C28.8672 21.1203 30.1205 20.5203 32.9472 21.787C35.7738 23.0536 38.3605 23.987 39.2538 24.307C40.2138 26.6536 41.4805 30.2003 42.2938 32.6136L41.0672 33.427C39.3227 31.5664 37.4027 29.8785 35.3338 28.387C33.8405 27.187 32.4272 26.0403 31.5338 25.147C31.3462 24.958 31.0933 24.8483 30.8272 24.8403ZM18.1738 20.667C17.4608 24.5971 16.4762 28.473 15.2272 32.267H12.0672V19.5736C14.1397 19.6876 16.1905 20.0548 18.1738 20.667Z" fill="white"/>
</g>
<defs>
<clipPath id="clip0_862_2005">
<rect width="40" height="40" fill="white" transform="translate(10 10)"/>
</clipPath>
</defs>
</svg>
