<svg width="60" height="60" viewBox="0 0 60 60" fill="none" xmlns="http://www.w3.org/2000/svg">
<circle cx="30" cy="30" r="30" fill="#2497FF"/>
<g clip-path="url(#clip0_862_1998)">
<path d="M31.5206 28.3197V28.4797H35.054C35.2533 28.4788 35.4506 28.5186 35.634 28.5965C35.8174 28.6745 35.983 28.789 36.1206 28.933C36.2609 29.073 36.3723 29.2392 36.4482 29.4223C36.5241 29.6053 36.5632 29.8015 36.5632 29.9997C36.5632 30.1978 36.5241 30.3941 36.4482 30.5771C36.3723 30.7601 36.2609 30.9264 36.1206 31.0663C35.983 31.2104 35.8174 31.3249 35.634 31.4028C35.4506 31.4808 35.2533 31.5205 35.054 31.5197H30.0007C29.5997 31.5128 29.217 31.3505 28.9334 31.0669C28.6498 30.7833 28.4875 30.4007 28.4806 29.9997V23.333C28.4806 22.9299 28.6408 22.5433 28.9258 22.2582C29.2109 21.9732 29.5975 21.813 30.0007 21.813C30.4038 21.813 30.7904 21.9732 31.0755 22.2582C31.3605 22.5433 31.5206 22.9299 31.5206 23.333V28.3197ZM13.334 29.9997C13.334 26.7033 14.3115 23.481 16.1428 20.7402C17.9742 17.9994 20.5772 15.8632 23.6226 14.6017C26.668 13.3402 30.0191 13.0102 33.2522 13.6533C36.4852 14.2963 39.4549 15.8837 41.7858 18.2146C44.1166 20.5454 45.704 23.5152 46.3471 26.7482C46.9902 29.9812 46.6601 33.3323 45.3986 36.3777C44.1372 39.4232 42.001 42.0261 39.2602 43.8575C36.5193 45.6889 33.297 46.6663 30.0007 46.6663C25.5825 46.6593 21.3474 44.9011 18.2233 41.777C15.0992 38.6529 13.341 34.4178 13.334 29.9997ZM16.3607 29.9997C16.3607 32.6974 17.1606 35.3346 18.6594 37.5777C20.1582 39.8207 22.2885 41.569 24.7808 42.6014C27.2732 43.6338 30.0158 43.9039 32.6617 43.3776C35.3076 42.8513 37.738 41.5522 39.6456 39.6446C41.5532 37.737 42.8523 35.3066 43.3786 32.6607C43.9049 30.0148 43.6347 27.2723 42.6024 24.7799C41.57 22.2875 39.8217 20.1572 37.5786 18.6584C35.3355 17.1597 32.6984 16.3597 30.0007 16.3597C26.3842 16.3632 22.9168 17.8014 20.3596 20.3586C17.8024 22.9159 16.3642 26.3832 16.3607 29.9997Z" fill="white"/>
</g>
<defs>
<clipPath id="clip0_862_1998">
<rect width="40" height="40" fill="white" transform="translate(10 10)"/>
</clipPath>
</defs>
</svg>
