<svg width="60" height="60" viewBox="0 0 60 60" fill="none" xmlns="http://www.w3.org/2000/svg">
<circle cx="30" cy="30" r="30" fill="#2497FF"/>
<g clip-path="url(#clip0_862_2038)">
<path d="M35.6943 25.9197C35.4617 25.7003 35.1541 25.5781 34.8343 25.5781C34.5146 25.5781 34.2069 25.7003 33.9743 25.9197L28.3876 31.4931L26.001 29.1331C25.7743 28.9179 25.4735 28.7985 25.161 28.7997C25.0029 28.7985 24.8462 28.8284 24.6997 28.8879C24.5533 28.9474 24.42 29.0353 24.3076 29.1464C24.088 29.3765 23.964 29.6816 23.961 29.9997C23.9597 30.1578 23.9897 30.3145 24.0492 30.461C24.1087 30.6074 24.1965 30.7407 24.3076 30.8531L27.521 34.0664C27.6284 34.1829 27.7605 34.274 27.9076 34.3331C28.0547 34.3972 28.2139 34.4291 28.3743 34.4264C28.6949 34.4225 29.0012 34.2933 29.2276 34.0664L35.6676 27.6264C35.779 27.5173 35.8654 27.3854 35.921 27.2397C35.9826 27.0919 36.0143 26.9333 36.0143 26.7731C36.0143 26.6129 35.9826 26.4543 35.921 26.3064C35.8733 26.1631 35.7961 26.0314 35.6943 25.9197Z" fill="white"/>
<path d="M43.9866 21.9067V21.7601C43.9866 20.9334 43.9866 20.1334 43.9866 19.3601C43.9879 19.202 43.9579 19.0452 43.8984 18.8988C43.8389 18.7524 43.7511 18.6191 43.64 18.5067C43.4094 18.2778 43.0982 18.1486 42.7733 18.1467C40.59 18.252 38.4083 17.9088 36.3627 17.1383C34.3172 16.3677 32.4512 15.1863 30.88 13.6667C30.651 13.4559 30.3512 13.3389 30.04 13.3389C29.7287 13.3389 29.4289 13.4559 29.2 13.6667C27.624 15.1913 25.7515 16.3757 23.6987 17.1464C21.6459 17.917 19.4565 18.2575 17.2666 18.1467C16.9504 18.15 16.6477 18.2753 16.4216 18.4964C16.1955 18.7175 16.0636 19.0173 16.0533 19.3334C16.0533 20.1601 16.0533 21.0134 16.0533 21.9067C15.9733 26.1867 15.88 31.0401 17.56 35.5601C19.5066 40.8267 23.4533 44.4267 29.64 46.5734C29.8991 46.6628 30.1808 46.6628 30.44 46.5734C36.6266 44.4267 40.5733 40.8267 42.52 35.5601C44.16 31.0667 44.0666 26.2134 43.9866 21.9067ZM40.2933 34.6001C38.68 39.0934 35.3333 42.2267 30 44.1734C24.6666 42.2401 21.32 39.1067 19.7066 34.6001C18.28 30.6001 18.3733 26.2401 18.3733 21.9734V21.8267C18.3733 21.3867 18.3733 20.9734 18.3733 20.4934C22.6389 20.4929 26.7633 18.9651 30 16.1867C33.2046 18.9636 37.2931 20.5092 41.5333 20.5467C41.5333 21.0134 41.5333 21.4934 41.5333 21.9867C41.64 26.2401 41.72 30.6401 40.2933 34.6001Z" fill="white"/>
</g>
<defs>
<clipPath id="clip0_862_2038">
<rect width="40" height="40" fill="white" transform="translate(10 10)"/>
</clipPath>
</defs>
</svg>
