<svg width="60" height="60" viewBox="0 0 60 60" fill="none" xmlns="http://www.w3.org/2000/svg">
<circle cx="30" cy="30" r="30" fill="#2497FF"/>
<g clip-path="url(#clip0_862_2012)">
<path fill-rule="evenodd" clip-rule="evenodd" d="M48.84 27.8537L44.7333 21.6803C44.4338 21.2542 44.0359 20.9066 43.5733 20.667C43.1077 20.4253 42.5913 20.2973 42.0667 20.2937H36.9333V19.7337C36.9298 18.391 36.3949 17.1043 35.4455 16.1549C34.496 15.2055 33.2094 14.6705 31.8667 14.667H15.0667C14.4008 14.6653 13.7412 14.7951 13.1257 15.0491C12.5102 15.3031 11.9509 15.6762 11.4801 16.1471C11.0093 16.6179 10.6361 17.1772 10.3821 17.7927C10.1281 18.4082 9.99826 19.0678 10 19.7337V36.5337C10 37.8774 10.5338 39.1662 11.484 40.1164C12.4342 41.0665 13.7229 41.6003 15.0667 41.6003H16.6667C16.9637 42.6626 17.6002 43.5985 18.4789 44.2653C19.3576 44.932 20.4303 45.2929 21.5333 45.2929C22.6364 45.2929 23.7091 44.932 24.5878 44.2653C25.4665 43.5985 26.103 42.6626 26.4 41.6003H33.44C33.737 42.6626 34.3735 43.5985 35.2522 44.2653C36.1309 44.932 37.2037 45.2929 38.3067 45.2929C39.4097 45.2929 40.4824 44.932 41.3612 44.2653C42.2399 43.5985 42.8763 42.6626 43.1733 41.6003H46.8C47.6487 41.6003 48.4626 41.2632 49.0628 40.6631C49.6629 40.063 50 39.249 50 38.4003V31.7337C50.0097 30.3535 49.6057 29.0021 48.84 27.8537ZM21.6 42.667C21.1248 42.6697 20.6595 42.5311 20.263 42.269C19.8666 42.0069 19.5569 41.633 19.3732 41.1947C19.1895 40.7564 19.1401 40.2734 19.2312 39.807C19.3223 39.3406 19.5498 38.9117 19.8849 38.5747C20.22 38.2377 20.6476 38.0078 21.1135 37.9141C21.5795 37.8205 22.0627 37.8672 22.502 38.0485C22.9413 38.2297 23.317 38.5373 23.5813 38.9323C23.8456 39.3272 23.9867 39.7918 23.9867 40.267C23.9832 40.9002 23.7311 41.5066 23.2846 41.9555C22.8382 42.4045 22.2331 42.66 21.6 42.667ZM34.2667 37.3337C33.9396 37.7992 33.696 38.318 33.5467 38.867H26.48C26.183 37.8047 25.5465 36.8688 24.6678 36.2021C23.7891 35.5354 22.7164 35.1745 21.6134 35.1745C20.5103 35.1745 19.4376 35.5354 18.5589 36.2021C17.6802 36.8688 17.0437 37.8047 16.7467 38.867H15.0667C14.4426 38.8639 13.8439 38.6191 13.3964 38.1841C12.9489 37.749 12.6874 37.1575 12.6667 36.5337V19.7337C12.6616 19.412 12.7216 19.0927 12.843 18.7948C12.9644 18.497 13.1448 18.2267 13.3734 18.0003C13.5965 17.7815 13.8615 17.6096 14.1523 17.4951C14.4432 17.3806 14.7542 17.3257 15.0667 17.3337H31.8667C32.1792 17.3257 32.4901 17.3806 32.781 17.4951C33.0719 17.6096 33.3368 17.7815 33.56 18.0003C33.7885 18.2267 33.9689 18.497 34.0904 18.7948C34.2118 19.0927 34.2718 19.412 34.2667 19.7337V37.3337ZM36.9333 22.9337H42.0667C42.1541 22.9346 42.2399 22.9569 42.3166 22.9988C42.3934 23.0406 42.4586 23.1007 42.5067 23.1737L46.1733 28.667H36.9333V22.9337ZM38.4 42.667C37.9253 42.667 37.4613 42.5263 37.0666 42.2625C36.672 41.9988 36.3644 41.624 36.1827 41.1855C36.0011 40.7469 35.9535 40.2643 36.0461 39.7988C36.1387 39.3332 36.3673 38.9056 36.703 38.57C37.0386 38.2343 37.4662 38.0057 37.9318 37.9131C38.3974 37.8205 38.8799 37.868 39.3185 38.0497C39.757 38.2313 40.1318 38.539 40.3955 38.9336C40.6593 39.3283 40.8 39.7923 40.8 40.267C40.7965 40.9025 40.5425 41.5109 40.0932 41.9602C39.6439 42.4095 39.0355 42.6635 38.4 42.667ZM47.3333 38.4003C47.3281 38.5443 47.2714 38.6815 47.1733 38.787C47.072 38.8814 46.9385 38.9339 46.8 38.9337H43.3333C43.0389 37.8539 42.3951 36.902 41.5027 36.2266C40.6102 35.5512 39.5192 35.1904 38.4 35.2003C37.9485 35.2052 37.4998 35.2725 37.0667 35.4003H36.9733V31.3337H47.3333V31.4003C47.3333 31.4003 47.3333 31.467 47.3333 31.507C47.3333 31.547 47.3333 31.627 47.3333 31.6937V38.4003Z" fill="white"/>
</g>
<defs>
<clipPath id="clip0_862_2012">
<rect width="40" height="40" fill="white" transform="translate(10 10)"/>
</clipPath>
</defs>
</svg>
